<svg xmlns="http://www.w3.org/2000/svg">
  <symbol id="social-facebook" width="8" height="16" viewBox="0 0 8 16">
  <path d="M2 5.33333H0V8H2V16H5.33333V8H7.73333L8 5.33333H5.33333V4.2C5.33333 3.6 5.46667 3.33333 6.06667 3.33333H8V0H5.46667C3.06667 0 2 1.06667 2 3.06667V5.33333Z" fill="#46A358" fill-opacity="0.6"/>
</symbol>
 <symbol id="social-twitter" width="16" height="13" viewBox="0 0 16 13" >
 <path d="M5.03186 13.0036C11.0699 13.0036 14.3718 8.00118 14.3718 3.66357C14.3718 3.52144 14.3689 3.38005 14.3624 3.2392C15.0033 2.77588 15.5605 2.19756 16 1.53953C15.4118 1.80085 14.7789 1.97682 14.1149 2.05616C14.7926 1.64981 15.313 1.0067 15.5585 0.24021C14.9241 0.616357 14.2217 0.889688 13.4742 1.03709C12.8749 0.399076 12.0218 0 11.0779 0C9.26483 0 7.79464 1.4702 7.79464 3.28233C7.79464 3.54001 7.82357 3.79041 7.87962 4.0308C5.1516 3.89377 2.73239 2.58735 1.11352 0.601253C0.831273 1.08622 0.668767 1.64999 0.668767 2.25106C0.668767 3.38988 1.24837 4.3953 2.12968 4.98363C1.59121 4.96707 1.08531 4.81894 0.642926 4.57291C0.642198 4.58656 0.642198 4.60039 0.642198 4.61476C0.642198 6.2047 1.77392 7.53204 3.27578 7.83285C3.00008 7.90801 2.71001 7.94841 2.41047 7.94841C2.19901 7.94841 1.99338 7.9273 1.79339 7.88927C2.21121 9.19332 3.42318 10.1425 4.86007 10.1693C3.73636 11.0499 2.32094 11.5745 0.783049 11.5745C0.518272 11.5745 0.256952 11.5594 0 11.529C1.45273 12.46 3.17769 13.0036 5.03186 13.0036Z" fill="#46A358" fill-opacity="0.6"/>
 </symbol>
 <symbol id="social-linkedin" width="16" height="16" viewBox="0 0 16 16">
 <path d="M3.33333 1.66667C3.33333 2.6 2.6 3.33333 1.66667 3.33333C0.733333 3.33333 0 2.6 0 1.66667C0 0.733333 0.733333 0 1.66667 0C2.6 0 3.33333 0.733333 3.33333 1.66667ZM3.33333 4.66667H0V15.3333H3.33333V4.66667ZM8.66667 4.66667H5.33333V15.3333H8.66667V9.73333C8.66667 6.6 12.6667 6.33333 12.6667 9.73333V15.3333H16V8.6C16 3.33333 10.0667 3.53333 8.66667 6.13333V4.66667Z" fill="#46A358" fill-opacity="0.6"/>
 </symbol>
 <sumbol id="social-instagram" width="16" height="16" viewBox="0 0 16 16">
 <path d="M8 1.46667C10.1333 1.46667 10.4 1.46667 11.2667 1.53333C13.4667 1.6 14.4667 2.66667 14.5333 4.8C14.6 5.66667 14.6 5.86667 14.6 8C14.6 10.1333 14.6 10.4 14.5333 11.2C14.4667 13.3333 13.4 14.4 11.2667 14.4667C10.4 14.5333 10.2 14.5333 8 14.5333C5.86667 14.5333 5.6 14.5333 4.8 14.4667C2.6 14.4 1.6 13.3333 1.53333 11.2C1.46667 10.3333 1.46667 10.1333 1.46667 8C1.46667 5.86667 1.46667 5.6 1.53333 4.8C1.6 2.66667 2.66667 1.6 4.8 1.53333C5.6 1.46667 5.86667 1.46667 8 1.46667ZM8 0C5.8 0 5.53333 0 4.73333 0.0666667C1.8 0.2 0.2 1.8 0.0666667 4.73333C0 5.53333 0 5.8 0 8C0 10.2 0 10.4667 0.0666667 11.2667C0.2 14.2 1.8 15.8 4.73333 15.9333C5.53333 16 5.8 16 8 16C10.2 16 10.4667 16 11.2667 15.9333C14.2 15.8 15.8 14.2 15.9333 11.2667C16 10.4667 16 10.2 16 8C16 5.8 16 5.53333 15.9333 4.73333C15.8 1.8 14.2 0.2 11.2667 0.0666667C10.4667 0 10.2 0 8 0ZM8 3.86667C5.73333 3.86667 3.86667 5.73333 3.86667 8C3.86667 10.2667 5.73333 12.1333 8 12.1333C10.2667 12.1333 12.1333 10.2667 12.1333 8C12.1333 5.73333 10.2667 3.86667 8 3.86667ZM8 10.6667C6.53333 10.6667 5.33333 9.46667 5.33333 8C5.33333 6.53333 6.53333 5.33333 8 5.33333C9.46667 5.33333 10.6667 6.53333 10.6667 8C10.6667 9.46667 9.46667 10.6667 8 10.6667ZM12.2667 2.8C11.7333 2.8 11.3333 3.2 11.3333 3.73333C11.3333 4.26667 11.7333 4.66667 12.2667 4.66667C12.8 4.66667 13.2 4.26667 13.2 3.73333C13.2 3.2 12.8 2.8 12.2667 2.8Z" fill="#46A358" fill-opacity="0.6"/>
</symbol> 
<symbol id="social-union" width="19" height="14" viewBox="0 0 19 14">
<path fill-rule="evenodd" clip-rule="evenodd" d="M15.1653 4.42995L15.168 4.43062C15.168 4.43062 15.1676 4.4305 15.1667 4.4303C15.1663 4.4302 15.1658 4.43008 15.1653 4.42995ZM4.32444 4.35686C6.91762 4.19575 11.7483 4.19575 14.3415 4.35686L14.3422 4.3644C14.4047 4.99716 14.4299 5.84143 14.4299 7.01915C14.4299 8.18238 14.4053 9.02689 14.3441 9.66498C11.6962 9.77026 6.97129 9.77027 4.32282 9.66502C4.261 9.03324 4.23602 8.19137 4.23602 7.01915C4.23602 5.84143 4.26123 4.99716 4.32369 4.3644L4.32444 4.35686ZM15.2422 9.61106C15.2422 9.61109 15.2405 9.61148 15.237 9.61215L15.2422 9.61106ZM3.49794 9.60768L3.50063 9.60836C3.49881 9.60793 3.49792 9.60769 3.49794 9.60768ZM0 7.01915C0 11.8412 0.388873 13.63 3.42208 13.8633C6.22196 14.0189 12.4439 14.0189 15.2438 13.8633C18.277 13.7078 18.6659 11.8412 18.6659 7.01915C18.6659 2.19713 18.277 0.408316 15.2438 0.174993C12.4439 -0.0583309 6.22196 -0.0583309 3.42208 0.174993C0.388873 0.408316 0 2.19713 0 7.01915ZM3.49794 4.43062C3.49792 4.43061 3.49884 4.43037 3.50073 4.42992L3.49794 4.43062ZM9.78228 8.73886C8.50388 9.37806 6.99973 8.44845 6.99973 7.01915C6.99973 5.58986 8.50388 4.66025 9.78228 5.29945C11.1994 6.008 11.1994 8.0303 9.78228 8.73886Z" fill="#46A358" fill-opacity="0.6"/>
<symbol id="button"  width="100" height="35" viewBox="0 0 100 35" >
<rect x="0.000976562" width="100" height="35" rx="6" fill="#46A358"/>
</symbol>
<symbol id="greenshop" width="150" height="35"">
<path d="M17.15 0C7.67748 0 0 7.67746 0 17.15C0 26.0201 6.73548 33.3175 15.3711 34.207C14.8496 29.9134 15.0436 26.4001 15.7067 23.5135C15.3347 21.7225 14.4898 19.0703 12.5734 17.1864C12.5734 17.1864 13.8348 19.0784 14.5181 21.6214C14.5181 21.6255 14.5221 21.6295 14.5221 21.6335C14.5949 21.9044 14.6596 22.1793 14.7162 22.4623C14.7283 22.527 14.7404 22.5917 14.7526 22.6604C14.8051 22.9515 14.8536 23.2426 14.886 23.5418C5.19513 22.3532 3.12921 13.6569 3.35561 10.3781C13.665 10.9482 15.7754 17.8292 16.0827 22.0985C19.4585 11.0412 30.1843 10.4024 31.0697 10.3781C31.4538 18.8763 25.1509 25.5026 17.6149 26.0807C17.6635 25.8503 17.7201 25.6198 17.7767 25.3934C17.7928 25.3247 17.813 25.26 17.8333 25.1913C17.8777 25.0296 17.9222 24.8679 17.9748 24.7061C17.995 24.6374 18.0192 24.5646 18.0394 24.4959C18.096 24.318 18.1567 24.1442 18.2173 23.9663C18.2335 23.9259 18.2456 23.8854 18.2618 23.845C18.3386 23.6348 18.4195 23.4326 18.5003 23.2305C18.5084 23.2143 18.5125 23.1941 18.5205 23.1779C18.5205 23.1779 18.5205 23.1779 18.5246 23.1779C20.4571 18.5043 24.0229 15.4439 24.0229 15.4439C17.0247 19.4868 15.8441 29.9983 15.6582 34.2231C16.1514 34.2676 16.6446 34.2999 17.15 34.2999C26.6225 34.2999 34.3 26.6225 34.3 17.15C34.3 7.67746 26.6225 0 17.15 0Z" fill="#46A358"/>
<path d="M46.7037 10.7454C48.9718 10.7454 50.8235 11.7197 52.02 viewBox="0 0 150 3542 13.4986L49.7764 15.4109C48.9718 14.287 47.9975 13.7048 46.6471 13.7048C44.5691 13.7048 43.2753 15.0713 43.2753 17.1534C43.2753 19.2719 44.6418 20.695 46.8372 20.695C48.0177 20.695 48.9556 20.2826 49.554 19.5912V19.0091H46.6673V16.2356H52.7762V20.133C52.194 21.1639 51.3693 21.9887 50.3019 22.6234C49.2346 23.242 48.0339 23.5614 46.7037 23.5614C42.9923 23.618 39.9237 20.7313 39.9763 17.1534C39.9197 13.5956 42.9923 10.6888 46.7037 10.7454Z" fill="#46A358"/>
<path d="M61.9576 23.3316L59.168 19.4908H57.8379V23.3316H54.6157V10.9684H59.4672C62.2204 10.9684 64.2459 12.6543 64.2459 15.2215C64.2459 16.7376 63.5141 17.995 62.2972 18.7429L65.5558 23.3316H61.9576ZM57.8338 16.681H59.4833C60.3809 16.681 60.963 16.0988 60.963 15.2215C60.963 14.3442 60.3809 13.7782 59.4833 13.7782H57.8338V16.681Z" fill="#46A358"/>
<path d="M66.8333 10.9684H75.4124V13.8712H70.0555V15.5773H73.876V18.2739H70.0555V20.4288H75.6388V23.3316H66.8333V10.9684Z" fill="#46A358"/>
<path d="M77.6441 10.9684H86.2231V13.8712H80.8663V15.5773H84.6868V18.2739H80.8663V20.4288H86.4495V23.3316H77.6441V10.9684Z" fill="#46A358"/>
<path d="M99.4192 10.9683V23.5579H98.3882L91.681 17.057V23.3315H88.4588V10.7419H89.4897L96.197 17.1499V10.9683H99.4192Z" fill="#46A358"/>
<path d="M103.264 19.135C103.996 20.1094 104.764 20.7279 106.017 20.7279C106.862 20.7279 107.291 20.4288 107.291 19.8264C107.291 19.2846 107.008 19.1148 106.033 18.6822L104.76 18.1203C102.718 17.2187 101.631 16.0584 101.631 14.3927C101.631 12.2014 103.43 10.7379 105.957 10.7379C107.998 10.7379 109.442 11.7123 110.19 13.2283L108.035 14.8778C107.436 13.9803 106.874 13.5679 105.993 13.5679C105.318 13.5679 104.889 13.8307 104.889 14.3563C104.889 14.8051 105.152 15.0517 105.957 15.367L107.38 15.9654C109.535 16.867 110.545 17.9505 110.545 19.6929C110.545 22.0904 108.576 23.5539 106.009 23.5539C103.782 23.5539 101.982 22.4866 101.081 20.7805L103.264 19.135Z" fill="#46A358"/>
<path d="M112.393 10.9684H115.615V15.4843H120.131V10.9684H123.353V23.3316H120.131V18.3871H115.615V23.3316H112.393V10.9684Z" fill="#46A358"/>
<path d="M131.843 10.7419C135.441 10.6651 138.607 13.6084 138.53 17.1499C138.603 20.7279 135.441 23.6145 131.843 23.5579C128.229 23.6145 125.116 20.7279 125.193 17.1499C125.116 13.6084 128.229 10.6692 131.843 10.7419ZM131.859 13.7014C129.874 13.7014 128.488 15.1083 128.488 17.1499C128.488 18.1809 128.807 19.0218 129.426 19.6606C130.044 20.2791 130.869 20.5985 131.859 20.5985C133.772 20.5985 135.231 19.2118 135.231 17.1499C135.235 15.1083 133.772 13.7014 131.859 13.7014Z" fill="#46A358"/>

</symbol>
<symbol id= "logout" width="18" height="18" viewBox="0 0 18 18">
<path d="M17.1601 9.1006H7.12598" stroke="white" stroke-width="1.5" stroke-linecap="round" stroke-linejoin="round"/>
<path d="M14.7212 6.67059L17.1612 9.10059L14.7212 11.5306" stroke="white" stroke-width="1.5" stroke-linecap="round" stroke-linejoin="round"/>
<path d="M12.6342 5.35826C12.3592 2.37493 11.2425 1.2916 6.80082 1.2916C0.883322 1.2916 0.883322 3.2166 0.883322 8.99993C0.883322 14.7833 0.883322 16.7083 6.80082 16.7083C11.2425 16.7083 12.3592 15.6249 12.6342 12.6416" stroke="white" stroke-width="1.5" stroke-linecap="round" stroke-linejoin="round"/>
</symbol>
<symbol id="buttom-arrow-black" width="7" height="12" viewBox="0 0 7 12">
<path d="M1.27485 1.2759C1.27485 1.2759 5.81235 3.72165 5.81235 5.79315C5.81235 7.86615 1.27485 10.3127 1.27485 10.3127" stroke="white" stroke-width="1.5" stroke-linecap="round" stroke-linejoin="round"/>
</symbol>
<symbol id="Layer_1" viewBox="0 0 100 100" y="0" x="0">
<g class="ldl-layer"><g class="ldl-ani" style="transform-origin:50px 50px;transform:matrix(0.97254, 0, 0, 0.97254, 0, 0);animation-duration:1s;animation-timing-function:linear;animation-delay:-0.75s;animation-iteration-count:infinite;animation-direction:normal;animation-fill-mode:forwards;animation-play-state:paused;animation-name:animate;animation-timeline:auto;animation-range-start:normal;animation-range-end:normal;transform-box:view-box;;animation:none"><path fill="#f0af6b" d="M85.1 55.7l-7.6-3.8c-.9 12.8-10.6 23.2-23 25.3l-3.9 7.9 3.6 7.3C75 90.3 91.5 73.1 92.5 52l-7.4 3.7z" style="stroke-width:1px;fill:rgb(240, 216, 107);;animation:none"></path></g></g>
<g class="ldl-layer"><g class="ldl-ani" style="transform-origin:50px 50px;transform:matrix(0.921517, 0, 0, 0.921517, 0, 0);animation-duration:1s;animation-timing-function:linear;animation-delay:-0.875s;animation-iteration-count:infinite;animation-direction:normal;animation-fill-mode:forwards;animation-play-state:paused;animation-name:animate;animation-timeline:auto;animation-range-start:normal;animation-range-end:normal;transform-box:view-box;;animation:none"><path fill="#ea7c60" d="M55.7 14.9l-3.8 7.6c12.8.9 23.2 10.6 25.3 23l7.9 3.9 7.3-3.6C90.3 25 73.1 8.5 52 7.5l3.7 7.4z" style="stroke-width:1px;fill:rgb(226, 234, 96);;animation:none"></path></g></g>
<g class="ldl-layer"><g class="ldl-ani" style="transform-origin:50px 50px;transform:matrix(0.91, 0, 0, 0.91, 0, 0);animation-duration:1s;animation-timing-function:linear;animation-delay:-1s;animation-iteration-count:infinite;animation-direction:normal;animation-fill-mode:forwards;animation-play-state:paused;animation-name:animate;animation-timeline:auto;animation-range-start:normal;animation-range-end:normal;transform-box:view-box;;animation:none"><path fill="#a8b980" d="M44.3 85.1l3.8-7.6c-12.8-.9-23.2-10.6-25.3-23l-7.9-3.9-7.3 3.6C9.7 75 26.9 91.5 48 92.5l-3.7-7.4z" style="stroke-width:1px;fill:rgb(144, 185, 128);;animation:none"></path></g></g>
<metadata xmlns:d="https://loading.io/stock/"></metadata></g></g>
<STYLE type="text/css">@keyframes animate { 0.00% {transform: translate(0.00px,0.00px) rotate(0.00deg) scale(0.91, 0.91) skew(0deg, 0.00deg) ;opacity: 1.00;}4.00% {transform: translate(0.00px,0.00px) rotate(0.00deg) scale(0.91, 0.91) ;}8.00% {animation-timing-function: cubic-bezier(0.69,0.60,0.35,0.27);transform: translate(0.00px,0.00px) rotate(0.00deg) scale(0.91, 0.91) ;}14.00% {transform: translate(0.00px,0.00px) rotate(0.00deg) scale(0.93, 0.93) ;}18.00% {transform: translate(0.00px,0.00px) rotate(0.00deg) scale(0.94, 0.94) ;}22.00% {animation-timing-function: cubic-bezier(0.67,0.66,0.34,0.33);transform: translate(0.00px,0.00px) rotate(0.00deg) scale(0.96, 0.96) ;}26.00% {transform: translate(0.00px,0.00px) rotate(0.00deg) scale(0.97, 0.97) ;}30.00% {transform: translate(0.00px,0.00px) rotate(0.00deg) scale(0.99, 0.99) ;}34.00% {animation-timing-function: cubic-bezier(0.65,0.71,0.32,0.38);transform: translate(0.00px,0.00px) rotate(0.00deg) scale(1.01, 1.01) ;}40.00% {animation-timing-function: cubic-bezier(0.64,0.74,0.31,0.41);transform: translate(0.00px,0.00px) rotate(0.00deg) scale(1.02, 1.02) ;}46.00% {animation-timing-function: cubic-bezier(0.60,0.91,0.23,0.63);transform: translate(0.00px,0.00px) rotate(0.00deg) scale(1.03, 1.03) ;}50.00% {transform: translate(0.00px,0.00px) rotate(0.00deg) scale(1.03, 1.03) ;}54.00% {transform: translate(0.00px,0.00px) rotate(0.00deg) scale(1.03, 1.03) ;}58.00% {animation-timing-function: cubic-bezier(0.69,0.60,0.35,0.27);transform: translate(0.00px,0.00px) rotate(0.00deg) scale(1.03, 1.03) ;}64.00% {transform: translate(0.00px,0.00px) rotate(0.00deg) scale(1.01, 1.01) ;}68.00% {transform: translate(0.00px,0.00px) rotate(0.00deg) scale(1.00, 1.00) ;}72.00% {animation-timing-function: cubic-bezier(0.67,0.66,0.34,0.33);transform: translate(0.00px,0.00px) rotate(0.00deg) scale(0.98, 0.98) ;}76.00% {animation-timing-function: cubic-bezier(0.66,0.68,0.33,0.35);transform: translate(0.00px,0.00px) rotate(0.00deg) scale(0.97, 0.97) ;}82.00% {animation-timing-function: cubic-bezier(0.65,0.71,0.32,0.38);transform: translate(0.00px,0.00px) rotate(0.00deg) scale(0.94, 0.94) ;}88.00% {animation-timing-function: cubic-bezier(0.65,0.73,0.31,0.40);transform: translate(0.00px,0.00px) rotate(0.00deg) scale(0.92, 0.92) ;}94.00% {animation-timing-function: cubic-bezier(0.63,0.80,0.28,0.48);transform: translate(0.00px,0.00px) rotate(0.00deg) scale(0.91, 0.91) ;}100.00% {animation-timing-function: cubic-bezier(0.63,0.80,0.28,0.48);transform: translate(0.00px,0.00px) rotate(0.00deg) scale(0.91, 0.91) ;} }</STYLE><!-- [ldio] generated by https://loading.io --></svg>
</symbol>
<symbol id="shopping" viewBox="0 0 100 100" xmlns="http://www.w3.org/2000/svg" preserveAspectRatio="xMidYMid" width="55" height="55" xmlns:xlink="http://www.w3.org/1999/xlink" style="margin-top:0px;margin-right:0px;margin-bottom:0px;margin-left:0px;display:block;shape-rendering:auto;background-position-x:0%;background-position-y:0%;background-size:auto;background-origin:padding-box;background-clip:border-box;background:scroll rgb(255, 255, 255) none  repeat;width:55px;height:55px;;animation:none"><g class="ldl-scale" style="transform-origin:50px 50px;transform:matrix(0.8, 0, 0, 0.8, 0, 0);;animation:none"><g class="ldl-ani"><g class="ldl-layer"><g class="ldl-ani" style="transform-origin:50px 50px;transform:matrix(1.03, 0, 0, 1.03, 0, 0);animation-duration:1s;animation-timing-function:linear;animation-delay:-0.541667s;animation-iteration-count:infinite;animation-direction:normal;animation-fill-mode:forwards;animation-play-state:paused;animation-name:animate;animation-timeline:auto;animation-range-start:normal;animation-range-end:normal;transform-box:view-box;;animation:none"><path d="M80.24 61.203H30.392l-6.623-38.61h65.882z" stroke-miterlimit="10" stroke-linejoin="round" stroke-linecap="round" stroke-width="3" stroke="#323232" fill="none" style="stroke-width:3px;stroke:rgb(50, 50, 50);fill:none;;animation:none"></path></g></g>
<g class="ldl-layer"><g class="ldl-ani" style="transform-origin:50px 50px;transform:matrix(1.02904, 0, 0, 1.02904, 0, 0);animation-duration:1s;animation-timing-function:linear;animation-delay:-0.583333s;animation-iteration-count:infinite;animation-direction:normal;animation-fill-mode:forwards;animation-play-state:paused;animation-name:animate;animation-timeline:auto;animation-range-start:normal;animation-range-end:normal;transform-box:view-box;;animation:none"><path d="M30.392 61.203L18.889 73.752" stroke-miterlimit="10" stroke-linejoin="round" stroke-linecap="round" stroke-width="3" stroke="#323232" fill="none" style="stroke-width:3px;stroke:rgb(50, 50, 50);fill:none;;animation:none"></path></g></g>
<g class="ldl-layer"><g class="ldl-ani" style="transform-origin:50px 50px;transform:matrix(1.01568, 0, 0, 1.01568, 0, 0);animation-duration:1s;animation-timing-function:linear;animation-delay:-0.625s;animation-iteration-count:infinite;animation-direction:normal;animation-fill-mode:forwards;animation-play-state:paused;animation-name:animate;animation-timeline:auto;animation-range-start:normal;animation-range-end:normal;transform-box:view-box;;animation:none"><path d="M18.889 73.752H90" stroke-miterlimit="10" stroke-linejoin="round" stroke-linecap="round" stroke-width="3" stroke="#323232" fill="none" style="stroke-width:3px;stroke:rgb(50, 50, 50);fill:none;;animation:none"></path></g></g>
<g class="ldl-layer"><g class="ldl-ani" style="transform-origin:50px 50px;transform:matrix(1.00333, 0, 0, 1.00333, 0, 0);animation-duration:1s;animation-timing-function:linear;animation-delay:-0.666667s;animation-iteration-count:infinite;animation-direction:normal;animation-fill-mode:forwards;animation-play-state:paused;animation-name:animate;animation-timeline:auto;animation-range-start:normal;animation-range-end:normal;transform-box:view-box;;animation:none"><path d="M23.769 22.593l-5.839-9.027" stroke-miterlimit="10" stroke-linejoin="round" stroke-linecap="round" stroke-width="3" stroke="#323232" fill="none" style="stroke-width:3px;stroke:rgb(50, 50, 50);fill:none;;animation:none"></path></g></g>
<g class="ldl-layer"><g class="ldl-ani" style="transform-origin:50px 50px;transform:matrix(0.985834, 0, 0, 0.985834, 0, 0);animation-duration:1s;animation-timing-function:linear;animation-delay:-0.708333s;animation-iteration-count:infinite;animation-direction:normal;animation-fill-mode:forwards;animation-play-state:paused;animation-name:animate;animation-timeline:auto;animation-range-start:normal;animation-range-end:normal;transform-box:view-box;;animation:none"><path d="M17.93 13.566H10" stroke-miterlimit="10" stroke-linejoin="round" stroke-linecap="round" stroke-width="3" stroke="#323232" fill="none" style="stroke-width:3px;stroke:rgb(50, 50, 50);fill:none;;animation:none"></path></g></g>
<g class="ldl-layer"><g class="ldl-ani" style="transform-origin:50px 50px;transform:matrix(0.97254, 0, 0, 0.97254, 0, 0);animation-duration:1s;animation-timing-function:linear;animation-delay:-0.75s;animation-iteration-count:infinite;animation-direction:normal;animation-fill-mode:forwards;animation-play-state:paused;animation-name:animate;animation-timeline:auto;animation-range-start:normal;animation-range-end:normal;transform-box:view-box;;animation:none"><circle stroke-miterlimit="10" stroke-linejoin="round" stroke-linecap="round" stroke-width="3" stroke="#323232" fill="none" r="6.341" cy="80.093" cx="30.981" style="stroke-width:3px;stroke:rgb(50, 50, 50);fill:none;;animation:none"></circle></g></g>
<g class="ldl-layer"><g class="ldl-ani" style="transform-origin:50px 50px;transform:matrix(0.953723, 0, 0, 0.953723, 0, 0);animation-duration:1s;animation-timing-function:linear;animation-delay:-0.791667s;animation-iteration-count:infinite;animation-direction:normal;animation-fill-mode:forwards;animation-play-state:paused;animation-name:animate;animation-timeline:auto;animation-range-start:normal;animation-range-end:normal;transform-box:view-box;;animation:none"><circle stroke-miterlimit="10" stroke-linejoin="round" stroke-linecap="round" stroke-width="3" stroke="#323232" fill="none" r="6.341" cy="80.093" cx="76.995" style="stroke-width:3px;stroke:rgb(50, 50, 50);fill:none;;animation:none"></circle></g></g>
<g class="ldl-layer"><g class="ldl-ani" style="transform-origin:50px 50px;transform:matrix(0.935119, 0, 0, 0.935119, 0, 0);animation-duration:1s;animation-timing-function:linear;animation-delay:-0.833333s;animation-iteration-count:infinite;animation-direction:normal;animation-fill-mode:forwards;animation-play-state:paused;animation-name:animate;animation-timeline:auto;animation-range-start:normal;animation-range-end:normal;transform-box:view-box;;animation:none"><path d="M25.977 35.463h60.537" stroke-miterlimit="10" stroke-linejoin="round" stroke-linecap="round" stroke-width="3" stroke="#323232" fill="none" style="stroke-width:3px;stroke:rgb(50, 50, 50);fill:none;;animation:none"></path></g></g>
<g class="ldl-layer"><g class="ldl-ani" style="transform-origin:50px 50px;transform:matrix(0.921517, 0, 0, 0.921517, 0, 0);animation-duration:1s;animation-timing-function:linear;animation-delay:-0.875s;animation-iteration-count:infinite;animation-direction:normal;animation-fill-mode:forwards;animation-play-state:paused;animation-name:animate;animation-timeline:auto;animation-range-start:normal;animation-range-end:normal;transform-box:view-box;;animation:none"><path d="M28.184 48.333h55.193" stroke-miterlimit="10" stroke-linejoin="round" stroke-linecap="round" stroke-width="3" stroke="#323232" fill="none" style="stroke-width:3px;stroke:rgb(50, 50, 50);fill:none;;animation:none"></path></g></g>
<g class="ldl-layer"><g class="ldl-ani" style="transform-origin:50px 50px;transform:matrix(0.913352, 0, 0, 0.913352, 0, 0);animation-duration:1s;animation-timing-function:linear;animation-delay:-0.916667s;animation-iteration-count:infinite;animation-direction:normal;animation-fill-mode:forwards;animation-play-state:paused;animation-name:animate;animation-timeline:auto;animation-range-start:normal;animation-range-end:normal;transform-box:view-box;;animation:none"><path d="M73.181 22.593l-5.403 38.61" stroke-miterlimit="10" stroke-linejoin="round" stroke-linecap="round" stroke-width="3" stroke="#323232" fill="none" style="stroke-width:3px;stroke:rgb(50, 50, 50);fill:none;;animation:none"></path></g></g>
<g class="ldl-layer"><g class="ldl-ani" style="transform-origin:50px 50px;transform:matrix(0.91, 0, 0, 0.91, 0, 0);animation-duration:1s;animation-timing-function:linear;animation-delay:-0.958333s;animation-iteration-count:infinite;animation-direction:normal;animation-fill-mode:forwards;animation-play-state:paused;animation-name:animate;animation-timeline:auto;animation-range-start:normal;animation-range-end:normal;transform-box:view-box;;animation:none"><path d="M56.71 22.593l-1.394 38.61" stroke-miterlimit="10" stroke-linejoin="round" stroke-linecap="round" stroke-width="3" stroke="#323232" fill="none" style="stroke-width:3px;stroke:rgb(50, 50, 50);fill:none;;animation:none"></path></g></g>
<g class="ldl-layer"><g class="ldl-ani" style="transform-origin:50px 50px;transform:matrix(0.91, 0, 0, 0.91, 0, 0);animation-duration:1s;animation-timing-function:linear;animation-delay:-1s;animation-iteration-count:infinite;animation-direction:normal;animation-fill-mode:forwards;animation-play-state:paused;animation-name:animate;animation-timeline:auto;animation-range-start:normal;animation-range-end:normal;transform-box:view-box;;animation:none"><path d="M40.24 22.593l2.614 38.61" stroke-miterlimit="10" stroke-linejoin="round" stroke-linecap="round" stroke-width="3" stroke="#323232" fill="none" style="stroke-width:3px;stroke:rgb(50, 50, 50);fill:none;;animation:none"></path></g></g>
<metadata xmlns:d="https://loading.io/stock/"></metadata></g></g>
<STYLE type="text/css">@keyframes animate { 0.00% {transform: translate(0.00px,0.00px) rotate(0.00deg) scale(0.91, 0.91) skew(0deg, 0.00deg) ;opacity: 1.00;}4.00% {transform: translate(0.00px,0.00px) rotate(0.00deg) scale(0.91, 0.91) ;}8.00% {animation-timing-function: cubic-bezier(0.69,0.60,0.35,0.27);transform: translate(0.00px,0.00px) rotate(0.00deg) scale(0.91, 0.91) ;}14.00% {transform: translate(0.00px,0.00px) rotate(0.00deg) scale(0.93, 0.93) ;}18.00% {transform: translate(0.00px,0.00px) rotate(0.00deg) scale(0.94, 0.94) ;}22.00% {animation-timing-function: cubic-bezier(0.67,0.66,0.34,0.33);transform: translate(0.00px,0.00px) rotate(0.00deg) scale(0.96, 0.96) ;}26.00% {transform: translate(0.00px,0.00px) rotate(0.00deg) scale(0.97, 0.97) ;}30.00% {transform: translate(0.00px,0.00px) rotate(0.00deg) scale(0.99, 0.99) ;}34.00% {animation-timing-function: cubic-bezier(0.65,0.71,0.32,0.38);transform: translate(0.00px,0.00px) rotate(0.00deg) scale(1.01, 1.01) ;}40.00% {animation-timing-function: cubic-bezier(0.64,0.74,0.31,0.41);transform: translate(0.00px,0.00px) rotate(0.00deg) scale(1.02, 1.02) ;}46.00% {animation-timing-function: cubic-bezier(0.60,0.91,0.23,0.63);transform: translate(0.00px,0.00px) rotate(0.00deg) scale(1.03, 1.03) ;}50.00% {transform: translate(0.00px,0.00px) rotate(0.00deg) scale(1.03, 1.03) ;}54.00% {transform: translate(0.00px,0.00px) rotate(0.00deg) scale(1.03, 1.03) ;}58.00% {animation-timing-function: cubic-bezier(0.69,0.60,0.35,0.27);transform: translate(0.00px,0.00px) rotate(0.00deg) scale(1.03, 1.03) ;}64.00% {transform: translate(0.00px,0.00px) rotate(0.00deg) scale(1.01, 1.01) ;}68.00% {transform: translate(0.00px,0.00px) rotate(0.00deg) scale(1.00, 1.00) ;}72.00% {animation-timing-function: cubic-bezier(0.67,0.66,0.34,0.33);transform: translate(0.00px,0.00px) rotate(0.00deg) scale(0.98, 0.98) ;}76.00% {animation-timing-function: cubic-bezier(0.66,0.68,0.33,0.35);transform: translate(0.00px,0.00px) rotate(0.00deg) scale(0.97, 0.97) ;}82.00% {animation-timing-function: cubic-bezier(0.65,0.71,0.32,0.38);transform: translate(0.00px,0.00px) rotate(0.00deg) scale(0.94, 0.94) ;}88.00% {animation-timing-function: cubic-bezier(0.65,0.73,0.31,0.40);transform: translate(0.00px,0.00px) rotate(0.00deg) scale(0.92, 0.92) ;}94.00% {animation-timing-function: cubic-bezier(0.63,0.80,0.28,0.48);transform: translate(0.00px,0.00px) rotate(0.00deg) scale(0.91, 0.91) ;}100.00% {animation-timing-function: cubic-bezier(0.63,0.80,0.28,0.48);transform: translate(0.00px,0.00px) rotate(0.00deg) scale(0.91, 0.91) ;} }</STYLE><!-- [ldio] generated by https://loading.io --></svg>

</symbol>
</svg>

